<mxfile host="Electron" agent="Mozilla/5.0 (Windows NT 10.0; Win64; x64) AppleWebKit/537.36 (KHTML, like Gecko) draw.io/24.7.17 Chrome/128.0.6613.36 Electron/32.0.1 Safari/537.36" version="24.7.17">
  <diagram name="Page-1" id="ReL3WHF70ZllSQXpzm4o">
    <mxGraphModel dx="2469" dy="1589" grid="1" gridSize="10" guides="1" tooltips="1" connect="1" arrows="1" fold="1" page="0" pageScale="1" pageWidth="4681" pageHeight="3300" background="none" math="0" shadow="0">
      <root>
        <mxCell id="0" />
        <mxCell id="1" parent="0" />
        <mxCell id="yG6ZhMst78t4kocirP4l-4" value="" style="edgeStyle=orthogonalEdgeStyle;rounded=0;orthogonalLoop=1;jettySize=auto;html=1;" edge="1" parent="1" source="yG6ZhMst78t4kocirP4l-2" target="yG6ZhMst78t4kocirP4l-3">
          <mxGeometry relative="1" as="geometry" />
        </mxCell>
        <mxCell id="yG6ZhMst78t4kocirP4l-2" value="START" style="strokeWidth=2;html=1;shape=mxgraph.flowchart.terminator;whiteSpace=wrap;" vertex="1" parent="1">
          <mxGeometry x="920" y="40" width="100" height="60" as="geometry" />
        </mxCell>
        <mxCell id="yG6ZhMst78t4kocirP4l-6" value="" style="edgeStyle=orthogonalEdgeStyle;rounded=0;orthogonalLoop=1;jettySize=auto;html=1;" edge="1" parent="1" source="yG6ZhMst78t4kocirP4l-3" target="yG6ZhMst78t4kocirP4l-5">
          <mxGeometry relative="1" as="geometry" />
        </mxCell>
        <mxCell id="yG6ZhMst78t4kocirP4l-3" value="OUTPUT&lt;div&gt;MENU AWAL&lt;/div&gt;&lt;div&gt;LOGIN, REGISTER,&lt;/div&gt;&lt;div&gt;KELUAR&lt;/div&gt;" style="shape=parallelogram;perimeter=parallelogramPerimeter;whiteSpace=wrap;html=1;fixedSize=1;strokeWidth=2;" vertex="1" parent="1">
          <mxGeometry x="910" y="180" width="120" height="60" as="geometry" />
        </mxCell>
        <mxCell id="yG6ZhMst78t4kocirP4l-8" value="" style="edgeStyle=orthogonalEdgeStyle;rounded=0;orthogonalLoop=1;jettySize=auto;html=1;" edge="1" parent="1" source="yG6ZhMst78t4kocirP4l-5" target="yG6ZhMst78t4kocirP4l-7">
          <mxGeometry relative="1" as="geometry" />
        </mxCell>
        <mxCell id="yG6ZhMst78t4kocirP4l-5" value="INPUT&lt;div&gt;PILIHAN&lt;/div&gt;&lt;div&gt;MENU AWAL&lt;/div&gt;" style="shape=parallelogram;perimeter=parallelogramPerimeter;whiteSpace=wrap;html=1;fixedSize=1;strokeWidth=2;" vertex="1" parent="1">
          <mxGeometry x="910" y="320" width="120" height="60" as="geometry" />
        </mxCell>
        <mxCell id="yG6ZhMst78t4kocirP4l-10" value="" style="edgeStyle=orthogonalEdgeStyle;rounded=0;orthogonalLoop=1;jettySize=auto;html=1;entryX=0.5;entryY=0;entryDx=0;entryDy=0;" edge="1" parent="1" source="yG6ZhMst78t4kocirP4l-7" target="yG6ZhMst78t4kocirP4l-15">
          <mxGeometry relative="1" as="geometry">
            <mxPoint x="1070" y="490" as="targetPoint" />
          </mxGeometry>
        </mxCell>
        <mxCell id="yG6ZhMst78t4kocirP4l-12" value="" style="edgeStyle=orthogonalEdgeStyle;rounded=0;orthogonalLoop=1;jettySize=auto;html=1;entryX=0.5;entryY=0;entryDx=0;entryDy=0;" edge="1" parent="1" source="yG6ZhMst78t4kocirP4l-7" target="yG6ZhMst78t4kocirP4l-19">
          <mxGeometry relative="1" as="geometry">
            <mxPoint x="970" y="620" as="targetPoint" />
          </mxGeometry>
        </mxCell>
        <mxCell id="yG6ZhMst78t4kocirP4l-14" value="" style="edgeStyle=orthogonalEdgeStyle;rounded=0;orthogonalLoop=1;jettySize=auto;html=1;entryX=0.5;entryY=0;entryDx=0;entryDy=0;" edge="1" parent="1" source="yG6ZhMst78t4kocirP4l-7" target="yG6ZhMst78t4kocirP4l-17">
          <mxGeometry relative="1" as="geometry">
            <mxPoint x="870" y="490" as="targetPoint" />
          </mxGeometry>
        </mxCell>
        <mxCell id="yG6ZhMst78t4kocirP4l-7" value="IF&lt;div&gt;PILIHAN&lt;/div&gt;&lt;div&gt;&lt;br&gt;&lt;/div&gt;" style="rhombus;whiteSpace=wrap;html=1;strokeWidth=2;" vertex="1" parent="1">
          <mxGeometry x="930" y="450" width="80" height="80" as="geometry" />
        </mxCell>
        <mxCell id="yG6ZhMst78t4kocirP4l-15" value="CLEAR SCREEN&lt;div&gt;END&lt;/div&gt;" style="rounded=1;whiteSpace=wrap;html=1;strokeWidth=2;arcSize=50;" vertex="1" parent="1">
          <mxGeometry x="1070" y="600" width="120" height="60" as="geometry" />
        </mxCell>
        <mxCell id="yG6ZhMst78t4kocirP4l-23" value="" style="edgeStyle=orthogonalEdgeStyle;rounded=0;orthogonalLoop=1;jettySize=auto;html=1;" edge="1" parent="1" source="yG6ZhMst78t4kocirP4l-17" target="yG6ZhMst78t4kocirP4l-22">
          <mxGeometry relative="1" as="geometry" />
        </mxCell>
        <mxCell id="yG6ZhMst78t4kocirP4l-17" value="INPUT&lt;div&gt;USERNAME&lt;/div&gt;&lt;div&gt;PASSWORD&lt;/div&gt;" style="shape=parallelogram;perimeter=parallelogramPerimeter;whiteSpace=wrap;html=1;fixedSize=1;strokeWidth=2;" vertex="1" parent="1">
          <mxGeometry x="750" y="600" width="120" height="60" as="geometry" />
        </mxCell>
        <mxCell id="yG6ZhMst78t4kocirP4l-29" style="edgeStyle=orthogonalEdgeStyle;rounded=0;orthogonalLoop=1;jettySize=auto;html=1;exitX=0.5;exitY=1;exitDx=0;exitDy=0;entryX=1;entryY=0.5;entryDx=0;entryDy=0;" edge="1" parent="1" source="yG6ZhMst78t4kocirP4l-19" target="yG6ZhMst78t4kocirP4l-3">
          <mxGeometry relative="1" as="geometry">
            <mxPoint x="1290" y="357.3333333333333" as="targetPoint" />
            <Array as="points">
              <mxPoint x="970" y="840" />
              <mxPoint x="1280" y="840" />
              <mxPoint x="1280" y="210" />
            </Array>
          </mxGeometry>
        </mxCell>
        <mxCell id="yG6ZhMst78t4kocirP4l-19" value="INPUT&lt;div&gt;USERNAME BARU&lt;/div&gt;&lt;div&gt;PASSWORD BARU&lt;/div&gt;" style="shape=parallelogram;perimeter=parallelogramPerimeter;whiteSpace=wrap;html=1;fixedSize=1;strokeWidth=2;" vertex="1" parent="1">
          <mxGeometry x="910" y="760" width="120" height="60" as="geometry" />
        </mxCell>
        <mxCell id="yG6ZhMst78t4kocirP4l-24" style="edgeStyle=orthogonalEdgeStyle;rounded=0;orthogonalLoop=1;jettySize=auto;html=1;exitX=0;exitY=0.5;exitDx=0;exitDy=0;entryX=0;entryY=0.5;entryDx=0;entryDy=0;" edge="1" parent="1" source="yG6ZhMst78t4kocirP4l-22" target="yG6ZhMst78t4kocirP4l-3">
          <mxGeometry relative="1" as="geometry">
            <mxPoint x="670" y="350" as="targetPoint" />
            <Array as="points">
              <mxPoint x="590" y="770" />
              <mxPoint x="590" y="210" />
            </Array>
          </mxGeometry>
        </mxCell>
        <mxCell id="yG6ZhMst78t4kocirP4l-26" value="" style="edgeStyle=orthogonalEdgeStyle;rounded=0;orthogonalLoop=1;jettySize=auto;html=1;" edge="1" parent="1" source="yG6ZhMst78t4kocirP4l-22" target="yG6ZhMst78t4kocirP4l-25">
          <mxGeometry relative="1" as="geometry" />
        </mxCell>
        <mxCell id="yG6ZhMst78t4kocirP4l-32" style="rounded=0;orthogonalLoop=1;jettySize=auto;html=1;exitX=1;exitY=1;exitDx=0;exitDy=0;entryX=0.165;entryY=-0.037;entryDx=0;entryDy=0;entryPerimeter=0;" edge="1" parent="1" source="yG6ZhMst78t4kocirP4l-22" target="yG6ZhMst78t4kocirP4l-31">
          <mxGeometry relative="1" as="geometry" />
        </mxCell>
        <mxCell id="yG6ZhMst78t4kocirP4l-22" value="IF&lt;div&gt;ROLE&lt;/div&gt;&lt;div&gt;&lt;br&gt;&lt;/div&gt;" style="rhombus;whiteSpace=wrap;html=1;strokeWidth=2;" vertex="1" parent="1">
          <mxGeometry x="770" y="730" width="80" height="80" as="geometry" />
        </mxCell>
        <mxCell id="yG6ZhMst78t4kocirP4l-28" value="" style="edgeStyle=orthogonalEdgeStyle;rounded=0;orthogonalLoop=1;jettySize=auto;html=1;" edge="1" parent="1" source="yG6ZhMst78t4kocirP4l-25" target="yG6ZhMst78t4kocirP4l-27">
          <mxGeometry relative="1" as="geometry" />
        </mxCell>
        <mxCell id="yG6ZhMst78t4kocirP4l-25" value="OUTPUT&lt;div&gt;MENU&lt;/div&gt;&lt;div&gt;MANAJEMEN ATLET&lt;/div&gt;" style="shape=parallelogram;perimeter=parallelogramPerimeter;whiteSpace=wrap;html=1;fixedSize=1;strokeWidth=2;" vertex="1" parent="1">
          <mxGeometry x="750" y="920" width="120" height="60" as="geometry" />
        </mxCell>
        <mxCell id="yG6ZhMst78t4kocirP4l-36" value="" style="edgeStyle=orthogonalEdgeStyle;rounded=0;orthogonalLoop=1;jettySize=auto;html=1;" edge="1" parent="1" source="yG6ZhMst78t4kocirP4l-27" target="yG6ZhMst78t4kocirP4l-35">
          <mxGeometry relative="1" as="geometry" />
        </mxCell>
        <mxCell id="yG6ZhMst78t4kocirP4l-27" value="INPUT&lt;div&gt;PILIHAN&lt;/div&gt;" style="shape=parallelogram;perimeter=parallelogramPerimeter;whiteSpace=wrap;html=1;fixedSize=1;strokeWidth=2;" vertex="1" parent="1">
          <mxGeometry x="750" y="1040" width="120" height="60" as="geometry" />
        </mxCell>
        <mxCell id="yG6ZhMst78t4kocirP4l-34" value="" style="edgeStyle=orthogonalEdgeStyle;rounded=0;orthogonalLoop=1;jettySize=auto;html=1;entryX=1;entryY=0.5;entryDx=0;entryDy=0;" edge="1" parent="1" source="yG6ZhMst78t4kocirP4l-31" target="yG6ZhMst78t4kocirP4l-27">
          <mxGeometry relative="1" as="geometry">
            <mxPoint x="920" y="1090" as="targetPoint" />
            <Array as="points">
              <mxPoint x="990" y="1070" />
            </Array>
          </mxGeometry>
        </mxCell>
        <mxCell id="yG6ZhMst78t4kocirP4l-31" value="OUTPUT&lt;div&gt;&lt;span style=&quot;background-color: initial;&quot;&gt;MENU&lt;/span&gt;&lt;/div&gt;&lt;div&gt;MANAJEMEN ATLET&lt;/div&gt;" style="shape=parallelogram;perimeter=parallelogramPerimeter;whiteSpace=wrap;html=1;fixedSize=1;strokeWidth=2;" vertex="1" parent="1">
          <mxGeometry x="920" y="900" width="120" height="60" as="geometry" />
        </mxCell>
        <mxCell id="yG6ZhMst78t4kocirP4l-38" value="" style="edgeStyle=orthogonalEdgeStyle;rounded=0;orthogonalLoop=1;jettySize=auto;html=1;" edge="1" parent="1" source="yG6ZhMst78t4kocirP4l-35" target="yG6ZhMst78t4kocirP4l-37">
          <mxGeometry relative="1" as="geometry" />
        </mxCell>
        <mxCell id="yG6ZhMst78t4kocirP4l-40" value="" style="edgeStyle=orthogonalEdgeStyle;rounded=0;orthogonalLoop=1;jettySize=auto;html=1;" edge="1" parent="1" source="yG6ZhMst78t4kocirP4l-35" target="yG6ZhMst78t4kocirP4l-39">
          <mxGeometry relative="1" as="geometry" />
        </mxCell>
        <mxCell id="yG6ZhMst78t4kocirP4l-42" value="" style="edgeStyle=orthogonalEdgeStyle;rounded=0;orthogonalLoop=1;jettySize=auto;html=1;" edge="1" parent="1" source="yG6ZhMst78t4kocirP4l-35" target="yG6ZhMst78t4kocirP4l-41">
          <mxGeometry relative="1" as="geometry" />
        </mxCell>
        <mxCell id="yG6ZhMst78t4kocirP4l-51" style="rounded=0;orthogonalLoop=1;jettySize=auto;html=1;exitX=0;exitY=1;exitDx=0;exitDy=0;entryX=1;entryY=0;entryDx=0;entryDy=0;" edge="1" parent="1" source="yG6ZhMst78t4kocirP4l-35" target="yG6ZhMst78t4kocirP4l-50">
          <mxGeometry relative="1" as="geometry" />
        </mxCell>
        <mxCell id="yG6ZhMst78t4kocirP4l-35" value="IF&lt;div&gt;PILIHAN&lt;/div&gt;&lt;div&gt;&lt;br&gt;&lt;/div&gt;" style="rhombus;whiteSpace=wrap;html=1;strokeWidth=2;" vertex="1" parent="1">
          <mxGeometry x="770" y="1170" width="80" height="80" as="geometry" />
        </mxCell>
        <mxCell id="yG6ZhMst78t4kocirP4l-59" value="" style="edgeStyle=orthogonalEdgeStyle;rounded=0;orthogonalLoop=1;jettySize=auto;html=1;" edge="1" parent="1" source="yG6ZhMst78t4kocirP4l-37" target="yG6ZhMst78t4kocirP4l-58">
          <mxGeometry relative="1" as="geometry" />
        </mxCell>
        <mxCell id="yG6ZhMst78t4kocirP4l-37" value="OUTPUT&lt;div&gt;DAFTAR ATLET&lt;/div&gt;" style="shape=parallelogram;perimeter=parallelogramPerimeter;whiteSpace=wrap;html=1;fixedSize=1;strokeWidth=2;" vertex="1" parent="1">
          <mxGeometry x="750" y="1300" width="120" height="60" as="geometry" />
        </mxCell>
        <mxCell id="yG6ZhMst78t4kocirP4l-45" value="" style="edgeStyle=orthogonalEdgeStyle;rounded=0;orthogonalLoop=1;jettySize=auto;html=1;" edge="1" parent="1" source="yG6ZhMst78t4kocirP4l-39" target="yG6ZhMst78t4kocirP4l-43">
          <mxGeometry relative="1" as="geometry" />
        </mxCell>
        <mxCell id="yG6ZhMst78t4kocirP4l-39" value="OUTPUT&lt;div&gt;TERIMA KASIH&lt;/div&gt;" style="shape=parallelogram;perimeter=parallelogramPerimeter;whiteSpace=wrap;html=1;fixedSize=1;strokeWidth=2;" vertex="1" parent="1">
          <mxGeometry x="940" y="1180" width="120" height="60" as="geometry" />
        </mxCell>
        <mxCell id="yG6ZhMst78t4kocirP4l-47" value="" style="edgeStyle=orthogonalEdgeStyle;rounded=0;orthogonalLoop=1;jettySize=auto;html=1;" edge="1" parent="1" source="yG6ZhMst78t4kocirP4l-41" target="yG6ZhMst78t4kocirP4l-46">
          <mxGeometry relative="1" as="geometry" />
        </mxCell>
        <mxCell id="yG6ZhMst78t4kocirP4l-41" value="OUTPUT&lt;div&gt;TAMBAH ATLET&lt;/div&gt;&lt;div&gt;BARU&lt;/div&gt;" style="shape=parallelogram;perimeter=parallelogramPerimeter;whiteSpace=wrap;html=1;fixedSize=1;strokeWidth=2;" vertex="1" parent="1">
          <mxGeometry x="550" y="1180" width="120" height="60" as="geometry" />
        </mxCell>
        <mxCell id="yG6ZhMst78t4kocirP4l-43" value="CLEAR SCREEN&lt;div&gt;END&lt;/div&gt;" style="rounded=1;whiteSpace=wrap;html=1;strokeWidth=2;arcSize=50;" vertex="1" parent="1">
          <mxGeometry x="1100" y="1180" width="120" height="60" as="geometry" />
        </mxCell>
        <mxCell id="yG6ZhMst78t4kocirP4l-49" value="" style="edgeStyle=orthogonalEdgeStyle;rounded=0;orthogonalLoop=1;jettySize=auto;html=1;" edge="1" parent="1" source="yG6ZhMst78t4kocirP4l-46" target="yG6ZhMst78t4kocirP4l-48">
          <mxGeometry relative="1" as="geometry" />
        </mxCell>
        <mxCell id="yG6ZhMst78t4kocirP4l-46" value="INPUT&lt;div&gt;DATA DIRI ATLET&lt;/div&gt;" style="shape=parallelogram;perimeter=parallelogramPerimeter;whiteSpace=wrap;html=1;fixedSize=1;strokeWidth=2;" vertex="1" parent="1">
          <mxGeometry x="390" y="1180" width="120" height="60" as="geometry" />
        </mxCell>
        <mxCell id="yG6ZhMst78t4kocirP4l-55" value="" style="edgeStyle=orthogonalEdgeStyle;rounded=0;orthogonalLoop=1;jettySize=auto;html=1;" edge="1" parent="1" source="yG6ZhMst78t4kocirP4l-48" target="yG6ZhMst78t4kocirP4l-54">
          <mxGeometry relative="1" as="geometry" />
        </mxCell>
        <mxCell id="yG6ZhMst78t4kocirP4l-48" value="OUTPUT&lt;div&gt;ATLET TELAH&lt;/div&gt;&lt;div&gt;DITAMBAHKAN&lt;/div&gt;" style="shape=parallelogram;perimeter=parallelogramPerimeter;whiteSpace=wrap;html=1;fixedSize=1;strokeWidth=2;" vertex="1" parent="1">
          <mxGeometry x="390" y="1320" width="120" height="60" as="geometry" />
        </mxCell>
        <mxCell id="yG6ZhMst78t4kocirP4l-57" style="edgeStyle=orthogonalEdgeStyle;rounded=0;orthogonalLoop=1;jettySize=auto;html=1;exitX=0.5;exitY=1;exitDx=0;exitDy=0;entryX=1;entryY=0.5;entryDx=0;entryDy=0;" edge="1" parent="1" source="yG6ZhMst78t4kocirP4l-50" target="yG6ZhMst78t4kocirP4l-54">
          <mxGeometry relative="1" as="geometry">
            <Array as="points">
              <mxPoint x="650" y="1490" />
            </Array>
          </mxGeometry>
        </mxCell>
        <mxCell id="yG6ZhMst78t4kocirP4l-50" value="OUTPUT&lt;div&gt;DAFTAR ATLET&lt;/div&gt;" style="shape=parallelogram;perimeter=parallelogramPerimeter;whiteSpace=wrap;html=1;fixedSize=1;strokeWidth=2;" vertex="1" parent="1">
          <mxGeometry x="590" y="1300" width="120" height="60" as="geometry" />
        </mxCell>
        <mxCell id="yG6ZhMst78t4kocirP4l-61" value="" style="edgeStyle=orthogonalEdgeStyle;rounded=0;orthogonalLoop=1;jettySize=auto;html=1;" edge="1" parent="1" source="yG6ZhMst78t4kocirP4l-52" target="yG6ZhMst78t4kocirP4l-60">
          <mxGeometry relative="1" as="geometry" />
        </mxCell>
        <mxCell id="yG6ZhMst78t4kocirP4l-52" value="OUTPUT&lt;div&gt;DAFTAR ATLET&lt;/div&gt;" style="shape=parallelogram;perimeter=parallelogramPerimeter;whiteSpace=wrap;html=1;fixedSize=1;strokeWidth=2;" vertex="1" parent="1">
          <mxGeometry x="910" y="1300" width="120" height="60" as="geometry" />
        </mxCell>
        <mxCell id="yG6ZhMst78t4kocirP4l-53" style="rounded=0;orthogonalLoop=1;jettySize=auto;html=1;exitX=1;exitY=1;exitDx=0;exitDy=0;entryX=0.167;entryY=0;entryDx=0;entryDy=0;entryPerimeter=0;" edge="1" parent="1" source="yG6ZhMst78t4kocirP4l-35" target="yG6ZhMst78t4kocirP4l-52">
          <mxGeometry relative="1" as="geometry" />
        </mxCell>
        <mxCell id="yG6ZhMst78t4kocirP4l-56" style="edgeStyle=orthogonalEdgeStyle;rounded=0;orthogonalLoop=1;jettySize=auto;html=1;exitX=0;exitY=0.5;exitDx=0;exitDy=0;entryX=0;entryY=0.5;entryDx=0;entryDy=0;" edge="1" parent="1" source="yG6ZhMst78t4kocirP4l-54" target="yG6ZhMst78t4kocirP4l-25">
          <mxGeometry relative="1" as="geometry">
            <mxPoint x="940" y="1000" as="targetPoint" />
            <Array as="points">
              <mxPoint x="330" y="1490" />
              <mxPoint x="330" y="950" />
            </Array>
          </mxGeometry>
        </mxCell>
        <mxCell id="yG6ZhMst78t4kocirP4l-54" value="INPUT&lt;div&gt;ENTER UNTUK KEMBALI KE MENU&lt;/div&gt;" style="shape=parallelogram;perimeter=parallelogramPerimeter;whiteSpace=wrap;html=1;fixedSize=1;strokeWidth=2;" vertex="1" parent="1">
          <mxGeometry x="390" y="1460" width="120" height="60" as="geometry" />
        </mxCell>
        <mxCell id="yG6ZhMst78t4kocirP4l-63" value="" style="edgeStyle=orthogonalEdgeStyle;rounded=0;orthogonalLoop=1;jettySize=auto;html=1;" edge="1" parent="1" source="yG6ZhMst78t4kocirP4l-58" target="yG6ZhMst78t4kocirP4l-62">
          <mxGeometry relative="1" as="geometry" />
        </mxCell>
        <mxCell id="yG6ZhMst78t4kocirP4l-58" value="INPUT&lt;div&gt;PILIHAN ATLET UNTUK DI EDIT&lt;/div&gt;" style="shape=parallelogram;perimeter=parallelogramPerimeter;whiteSpace=wrap;html=1;fixedSize=1;strokeWidth=2;" vertex="1" parent="1">
          <mxGeometry x="750" y="1400" width="120" height="60" as="geometry" />
        </mxCell>
        <mxCell id="yG6ZhMst78t4kocirP4l-65" value="" style="edgeStyle=orthogonalEdgeStyle;rounded=0;orthogonalLoop=1;jettySize=auto;html=1;" edge="1" parent="1" source="yG6ZhMst78t4kocirP4l-60" target="yG6ZhMst78t4kocirP4l-64">
          <mxGeometry relative="1" as="geometry" />
        </mxCell>
        <mxCell id="yG6ZhMst78t4kocirP4l-60" value="INPUT&lt;div&gt;PILIHAN ATLET UNTUK DI HAPUS&lt;/div&gt;" style="shape=parallelogram;perimeter=parallelogramPerimeter;whiteSpace=wrap;html=1;fixedSize=1;strokeWidth=2;" vertex="1" parent="1">
          <mxGeometry x="910" y="1400" width="120" height="60" as="geometry" />
        </mxCell>
        <mxCell id="yG6ZhMst78t4kocirP4l-66" style="rounded=0;orthogonalLoop=1;jettySize=auto;html=1;exitX=0;exitY=0.5;exitDx=0;exitDy=0;edgeStyle=orthogonalEdgeStyle;entryX=0.75;entryY=1;entryDx=0;entryDy=0;" edge="1" parent="1" source="yG6ZhMst78t4kocirP4l-62" target="yG6ZhMst78t4kocirP4l-54">
          <mxGeometry relative="1" as="geometry">
            <mxPoint x="480" y="1550" as="targetPoint" />
            <Array as="points">
              <mxPoint x="760" y="1540" />
              <mxPoint x="480" y="1540" />
            </Array>
          </mxGeometry>
        </mxCell>
        <mxCell id="yG6ZhMst78t4kocirP4l-62" value="OUTPUT&lt;div&gt;EDIT BERHASIL&lt;/div&gt;" style="shape=parallelogram;perimeter=parallelogramPerimeter;whiteSpace=wrap;html=1;fixedSize=1;strokeWidth=2;" vertex="1" parent="1">
          <mxGeometry x="750" y="1500" width="120" height="60" as="geometry" />
        </mxCell>
        <mxCell id="yG6ZhMst78t4kocirP4l-67" style="edgeStyle=orthogonalEdgeStyle;rounded=0;orthogonalLoop=1;jettySize=auto;html=1;exitX=0.5;exitY=1;exitDx=0;exitDy=0;entryX=0.5;entryY=1;entryDx=0;entryDy=0;" edge="1" parent="1" source="yG6ZhMst78t4kocirP4l-64" target="yG6ZhMst78t4kocirP4l-54">
          <mxGeometry relative="1" as="geometry" />
        </mxCell>
        <mxCell id="yG6ZhMst78t4kocirP4l-64" value="OUTPUT&lt;div&gt;EDIT BERHASIL&lt;/div&gt;" style="shape=parallelogram;perimeter=parallelogramPerimeter;whiteSpace=wrap;html=1;fixedSize=1;strokeWidth=2;" vertex="1" parent="1">
          <mxGeometry x="910" y="1500" width="120" height="60" as="geometry" />
        </mxCell>
        <mxCell id="yG6ZhMst78t4kocirP4l-68" value="PILIHAN = 1" style="text;html=1;align=center;verticalAlign=middle;whiteSpace=wrap;rounded=0;" vertex="1" parent="1">
          <mxGeometry x="820" y="460" width="90" height="30" as="geometry" />
        </mxCell>
        <mxCell id="yG6ZhMst78t4kocirP4l-69" value="PILIHAN = 3" style="text;html=1;align=center;verticalAlign=middle;whiteSpace=wrap;rounded=0;" vertex="1" parent="1">
          <mxGeometry x="1020" y="460" width="90" height="30" as="geometry" />
        </mxCell>
        <mxCell id="yG6ZhMst78t4kocirP4l-70" value="PILIHAN = 2" style="text;html=1;align=center;verticalAlign=middle;whiteSpace=wrap;rounded=0;rotation=90;" vertex="1" parent="1">
          <mxGeometry x="940" y="570" width="90" height="30" as="geometry" />
        </mxCell>
        <mxCell id="yG6ZhMst78t4kocirP4l-71" value="ROLE = ADMIN" style="text;html=1;align=center;verticalAlign=middle;whiteSpace=wrap;rounded=0;rotation=90;" vertex="1" parent="1">
          <mxGeometry x="780" y="850" width="90" height="30" as="geometry" />
        </mxCell>
        <mxCell id="yG6ZhMst78t4kocirP4l-72" value="PILIHAN = 1" style="text;html=1;align=center;verticalAlign=middle;whiteSpace=wrap;rounded=0;" vertex="1" parent="1">
          <mxGeometry x="680" y="1180" width="90" height="30" as="geometry" />
        </mxCell>
        <mxCell id="yG6ZhMst78t4kocirP4l-73" value="PILIHAN = 5" style="text;html=1;align=center;verticalAlign=middle;whiteSpace=wrap;rounded=0;" vertex="1" parent="1">
          <mxGeometry x="850" y="1180" width="90" height="30" as="geometry" />
        </mxCell>
        <mxCell id="yG6ZhMst78t4kocirP4l-74" value="PILIHAN = 2" style="text;html=1;align=center;verticalAlign=middle;whiteSpace=wrap;rounded=0;rotation=-40;" vertex="1" parent="1">
          <mxGeometry x="690" y="1240" width="90" height="30" as="geometry" />
        </mxCell>
        <mxCell id="yG6ZhMst78t4kocirP4l-75" value="PILIHAN = 4" style="text;html=1;align=center;verticalAlign=middle;whiteSpace=wrap;rounded=0;rotation=36;" vertex="1" parent="1">
          <mxGeometry x="841" y="1236" width="90" height="30" as="geometry" />
        </mxCell>
        <mxCell id="yG6ZhMst78t4kocirP4l-79" value="ROLE = USER" style="text;html=1;align=center;verticalAlign=middle;whiteSpace=wrap;rounded=0;rotation=45;" vertex="1" parent="1">
          <mxGeometry x="844" y="811" width="90" height="30" as="geometry" />
        </mxCell>
        <mxCell id="yG6ZhMst78t4kocirP4l-80" value="ROLE =&amp;nbsp;&lt;div&gt;TIDAK SESUAI&lt;/div&gt;" style="text;html=1;align=center;verticalAlign=middle;whiteSpace=wrap;rounded=0;rotation=0;" vertex="1" parent="1">
          <mxGeometry x="632" y="738" width="90" height="30" as="geometry" />
        </mxCell>
        <mxCell id="yG6ZhMst78t4kocirP4l-81" value="PILIHAN = 3" style="text;html=1;align=center;verticalAlign=middle;whiteSpace=wrap;rounded=0;" vertex="1" parent="1">
          <mxGeometry x="765" y="1260" width="90" height="30" as="geometry" />
        </mxCell>
      </root>
    </mxGraphModel>
  </diagram>
</mxfile>
